<?xml version="1.0" standalone="no"?>
<!DOCTYPE svg PUBLIC "-//W3C//DTD SVG 20010904//EN"
 "http://www.w3.org/TR/2001/REC-SVG-20010904/DTD/svg10.dtd">
<svg version="1.0" xmlns="http://www.w3.org/2000/svg"
 width="300.000000pt" height="313.000000pt" viewBox="0 0 300.000000 313.000000"
 preserveAspectRatio="xMidYMid meet">
<g transform="translate(0.000000,313.000000) scale(0.050000,-0.050000)"
fill="#000000" stroke="none">
<path d="M280 3130 l0 -2890 2730 0 2730 0 -5 2885 -5 2885 -2725 5 -2725 5 0
-2890z m5300 0 l0 -2730 -2580 0 -2580 0 0 2717 c0 1494 6 2722 13 2730 8 7
1169 13 2580 13 l2567 0 0 -2730z"/>
<path d="M1400 4191 l0 -691 130 0 130 0 0 290 0 290 300 0 300 0 0 -290 0
-290 130 0 130 0 0 691 0 691 -125 -6 -125 -6 -6 -295 -5 -295 -299 0 -299 0
-5 295 -6 295 -125 6 -125 6 0 -691z"/>
<path d="M3634 4867 c-8 -7 -14 -318 -14 -690 l0 -677 130 0 130 0 0 280 0
280 230 0 230 0 0 100 0 100 -230 0 -230 0 0 199 0 200 295 5 295 6 0 100 0
100 -411 5 c-226 3 -418 0 -425 -8z"/>
<path d="M2745 3637 c-57 -57 -6 -146 77 -134 61 9 94 67 66 112 -27 43 -109
56 -143 22z"/>
<path d="M4481 3621 c-33 -61 7 -125 73 -117 67 8 104 63 74 111 -33 53 -121
56 -147 6z"/>
<path d="M1807 2740 c-357 -142 -519 -579 -366 -988 200 -535 1076 -504 1200
43 l15 65 -123 0 -123 -1 -42 -96 c-97 -220 -431 -251 -602 -57 -176 201 -134
672 71 808 199 132 489 49 530 -152 12 -62 13 -62 144 -62 l132 0 -14 63 c-73
334 -470 516 -822 377z"/>
<path d="M3624 2736 c-574 -192 -598 -1104 -36 -1313 515 -192 963 115 962
657 -1 519 -430 822 -926 656z m379 -177 c253 -70 377 -469 234 -753 -151
-301 -578 -303 -733 -2 -212 411 91 869 499 755z"/>
<path d="M4476 1489 c-20 -43 -17 -57 20 -93 55 -55 144 -24 144 50 0 100
-123 133 -164 43z"/>
</g>
</svg>